# xmcd
#
# Track frame offsets:
#	150
#	21765
#	40152
#	58530
#	73107
#	91807
#	111752
#	128497
#	146830
#	164880
#	186792
#	203742
#	222602
#
# Disc length: 3258 seconds
#
# Revision: 1
# Processed by: cddbd v1.5.2PL0 Copyright (c) Steve Scherf et al.
# Submitted via: audiograbber 1.83.01
#
DISCID=c20cb80d
DTITLE=ED WILSON - UMA FORÇA NO AR
DYEAR=1997
DGENRE=Gospel
TTITLE0=Uma Força no Ar
TTITLE1=Divinal Paixão
TTITLE2=Grudado de vez
TTITLE3=Escondendo o jogo
TTITLE4=Iô -Iô
TTITLE5=Além das grades
TTITLE6=Não importa
TTITLE7=Eu Te agradeço Pai
TTITLE8=Levante a cabeça
TTITLE9=Pedacinho do céu
TTITLE10=O Profeta
TTITLE11=Deixa o Salvador te ajudar
TTITLE12=Há um país
EXTD=
EXTT0=
EXTT1=
EXTT2=
EXTT3=
EXTT4=
EXTT5=
EXTT6=
EXTT7=
EXTT8=
EXTT9=
EXTT10=
EXTT11=
EXTT12=
PLAYORDER=
